<svg id="Calque_1" data-name="Calque 1" xmlns="http://www.w3.org/2000/svg" viewBox="0 0 225.65 296.97">
  <defs>
    <style>
      .cls-1 {
        fill: #3a4a9a;
      }
    </style>
  </defs>
  <path class="cls-1" d="M210.92,242.13c4.76,6.84,8.4,14.43,10.93,22.74,2.52,8.34,3.79,16.95,3.79,25.88h-38.35c0-11.32-2.75-20.53-8.26-27.65-5.51-7.12-11.37-11.76-17.61-13.84-13.1-4.14-25.13,1.21-36.13,16.08-7.73,10.08-16.88,17.89-27.42,23.39-10.56,5.51-21.48,8.24-32.77,8.24-6.84,0-14.12-1.18-21.85-3.55-13.38-4.48-23.94-12.13-31.67-22.99-7.73-10.86-11.59-23.24-11.59-37.23,0-12.75,2.68-24.2,8.03-34.31s13.22-18.29,23.63-24.54c.3-.28.51-.44.67-.44s.37-.16.67-.47c-13.08-15.74-19.61-34.47-19.61-56.18,0-12.47,2.36-24.29,7.12-35.46,4.76-11.14,11.23-20.81,19.41-28.99,8.17-8.15,17.84-14.62,28.98-19.38,11.15-4.76,22.97-7.15,35.46-7.15s24.22,2.4,35.23,7.15c11,4.76,20.65,11.23,28.99,19.38,8.31,8.18,14.85,17.86,19.61,28.99,4.76,11.17,7.14,22.99,7.14,35.46s-2.38,24.23-7.14,35.24c-4.76,10.98-11.31,20.65-19.61,28.96-8.34,8.34-18,14.87-28.99,19.63-11.01,4.76-22.74,7.15-35.23,7.15-11.31,0-22.3-2.08-33-6.25-1.79-.59-4.68-.53-8.69.22-4.01.75-8.1,2.61-12.27,5.57-8.03,5.35-12.04,13.84-12.04,25.41,0,4.17.67,7.65,2.01,10.48,1.34,2.83,2.91,5.13,4.68,6.91,1.79,1.8,3.64,3.2,5.58,4.26,1.93,1.03,3.48,1.71,4.68,1.99,5.05,1.8,11.37,1.87,18.94.22,7.59-1.62,14.5-6.59,20.75-14.93,10.41-13.97,22.52-23.49,36.33-28.52,13.83-5.07,27.87-5.19,42.15-.47,15.46,5.07,27.93,14.71,37.45,28.99ZM104.35,64.2c-7.43,0-14.36,1.43-20.73,4.23-6.41,2.83-11.98,6.63-16.74,11.38-4.76,4.76-8.54,10.33-11.37,16.7-2.83,6.41-4.23,13.31-4.23,20.75,0,11.01,3.05,20.81,9.15,29.43,6.08,8.65,13.89,15.02,23.41,19.19,1.79.59,2.97,1.03,3.56,1.34,5.35,1.77,11,2.68,16.95,2.68,7.14,0,13.89-1.43,20.28-4.26,6.39-2.8,11.98-6.59,16.74-11.35,4.74-4.76,8.54-10.33,11.37-16.74,2.82-6.38,4.23-13.16,4.23-20.28s-1.42-14.34-4.23-20.75c-2.83-6.38-6.63-11.94-11.37-16.7-4.76-4.76-10.34-8.55-16.74-11.38-6.39-2.8-13.14-4.23-20.28-4.23ZM185.5,37.89c-5.35,0-9.89-1.84-13.59-5.57-3.73-3.7-5.58-8.24-5.58-13.59,0-5.07,1.85-9.46,5.58-13.16,3.7-3.73,8.24-5.57,13.59-5.57s9.88,1.84,13.61,5.57c3.7,3.7,5.57,8.09,5.57,13.16,0,5.35-1.87,9.89-5.57,13.59-3.73,3.73-8.26,5.57-13.61,5.57Z"/>
</svg>